<svg width="24" height="24" viewBox="0 0 24 24" fill="none" xmlns="http://www.w3.org/2000/svg">
<path d="M4.39789 11.1772C4.66372 13.0037 5.57827 14.6734 6.97423 15.8809C8.3702 17.0884 10.1542 17.753 12 17.753M12 17.753C13.8457 17.753 15.6298 17.0884 17.0257 15.8809C18.4217 14.6734 19.3363 13.0037 19.6021 11.1772M12 17.753V21.6M12.0011 2.40002C11.1281 2.40002 10.291 2.7468 9.6737 3.36406C9.05643 3.98132 8.70966 4.81851 8.70966 5.69145V10.08C8.70966 10.953 9.05643 11.7902 9.6737 12.4074C10.291 13.0247 11.1281 13.3715 12.0011 13.3715C12.874 13.3715 13.7112 13.0247 14.3285 12.4074C14.9457 11.7902 15.2925 10.953 15.2925 10.08V5.69145C15.2925 4.81851 14.9457 3.98132 14.3285 3.36406C13.7112 2.7468 12.874 2.40002 12.0011 2.40002Z" stroke="#091837" stroke-opacity="0.6" stroke-width="1.5" stroke-linecap="round" stroke-linejoin="round"/>
</svg>
